<?xml version="1.0" encoding="UTF-8" standalone="no"?>
<!-- Created with Inkscape (http://www.inkscape.org/) -->

<svg
   width="1336.6694"
   height="496.94113"
   viewBox="0 0 322.58289 131.99999"
   id="svg6473"
   version="1.1"
   sodipodi:docname="Solus_With_Text.svg"
   inkscape:version="1.4.2 (ebf0e940d0, 2025-05-08)"
   inkscape:export-filename="Solus_With_Text.png"
   inkscape:export-xdpi="96"
   inkscape:export-ydpi="96"
   xmlns:inkscape="http://www.inkscape.org/namespaces/inkscape"
   xmlns:sodipodi="http://sodipodi.sourceforge.net/DTD/sodipodi-0.dtd"
   xmlns="http://www.w3.org/2000/svg"
   xmlns:svg="http://www.w3.org/2000/svg"
   xmlns:rdf="http://www.w3.org/1999/02/22-rdf-syntax-ns#"
   xmlns:cc="http://creativecommons.org/ns#"
   xmlns:dc="http://purl.org/dc/elements/1.1/">
  <sodipodi:namedview
     id="namedview1"
     pagecolor="#505050"
     bordercolor="#ffffff"
     borderopacity="1"
     inkscape:showpageshadow="0"
     inkscape:pageopacity="0"
     inkscape:pagecheckerboard="1"
     inkscape:deskcolor="#505050"
     inkscape:zoom="0.46790623"
     inkscape:cx="298.13666"
     inkscape:cy="263.94178"
     inkscape:window-width="1920"
     inkscape:window-height="1008"
     inkscape:window-x="0"
     inkscape:window-y="0"
     inkscape:window-maximized="1"
     inkscape:current-layer="layer1">
    <inkscape:page
       x="0"
       y="0"
       width="322.58289"
       height="131.99998"
       id="page2"
       margin="0"
       bleed="0" />
  </sodipodi:namedview>
  <defs
     id="defs6475" />
  <metadata
     id="metadata6478">
    <rdf:RDF>
      <cc:Work
         rdf:about="">
        <dc:format>image/svg+xml</dc:format>
        <dc:type
           rdf:resource="http://purl.org/dc/dcmitype/StillImage" />
      </cc:Work>
    </rdf:RDF>
  </metadata>
  <g
     id="layer1"
     transform="translate(-20.238984,-916.36221)">
    <path
       d="m 620.55411,246.28784 q 0,-9.52579 -5.04306,-15.1292 -5.04307,-5.60341 -20.63923,-11.20681 -16.81022,-5.88358 -26.89635,-15.03582 -9.99275,-9.24562 -9.99275,-25.12194 0,-15.87633 10.55309,-26.42941 10.55308,-10.55309 28.3906,-10.55309 19.8921,0 30.35179,12.60767 10.4597,12.60767 10.4597,28.48399 h -17.18379 q 0,-11.39359 -5.60341,-18.8648 -5.6034,-7.47122 -18.02429,-7.47122 -11.30021,0 -16.53006,6.35053 -5.13645,6.25714 -5.13645,15.68955 0,8.59189 6.07035,14.28869 6.16375,5.6968 19.05159,10.3663 19.98549,6.53731 28.67077,16.24989 8.68529,9.71257 8.68529,25.58889 0,16.62345 -10.83326,26.5228 -10.73986,9.89936 -29.13772,9.89936 -10.64648,0 -20.63922,-4.66951 -9.99275,-4.66951 -16.43667,-13.82174 -6.35052,-9.24562 -6.35052,-22.78719 h 17.18378 q 0,13.91513 7.65799,20.26566 7.75138,6.35053 18.58464,6.35053 11.20682,0 16.997,-5.79019 5.79019,-5.88358 5.79019,-15.78294 z m 33.99402,-11.3002 v -9.61919 q 0,-23.6277 11.3002,-35.58164 11.30021,-12.04733 27.64348,-12.04733 16.53006,0 27.83026,12.04733 11.3936,11.95394 11.3936,35.58164 v 9.61919 q 0,23.6277 -11.3936,35.58164 -11.3002,11.95394 -27.64348,11.95394 -16.43666,0 -27.83026,-11.95394 -11.3002,-11.95394 -11.3002,-35.58164 z m 16.53005,-9.61919 v 9.61919 q 0,16.71683 6.44392,25.12195 6.44392,8.31172 16.15649,8.31172 22.50703,0 22.50703,-33.43367 v -9.61919 q 0,-16.53005 -6.53731,-24.93516 -6.44392,-8.4985 -16.1565,-8.4985 -9.61918,0 -16.0631,8.4985 -6.35053,8.40511 -6.35053,24.93516 z M 771.75275,137.20816 V 280.65542 H 755.31609 V 137.20816 Z m 78.07415,143.44726 -0.28017,-8.87207 q -8.40511,10.73987 -24.09466,10.73987 -12.51428,0 -20.17227,-8.77867 -7.65799,-8.77868 -7.65799,-28.95095 v -65.18631 h 16.43667 v 65.37309 q 0,13.63496 4.48272,18.30447 4.48273,4.57612 9.71258,4.57612 8.12494,0 13.07462,-3.64222 5.04306,-3.7356 7.65799,-9.89935 v -74.71211 h 16.53005 v 101.04813 z m 89.56113,-25.86907 q 0,-5.6968 -4.29595,-9.5258 -4.29595,-3.92238 -15.1292,-8.59189 -14.10191,-5.79019 -21.94668,-11.86055 -7.84478,-6.16375 -7.84478,-18.39785 0,-12.04733 8.77868,-20.35905 8.77867,-8.31173 23.25414,-8.31173 15.50276,0 24.09466,8.77868 8.59189,8.77867 8.59189,21.85329 h -16.43666 q 0,-6.25714 -4.20256,-11.30021 -4.20256,-5.13645 -12.04733,-5.13645 -8.31172,0 -11.95394,4.20255 -3.54882,4.20256 -3.54882,9.71258 0,5.51001 3.54882,8.59189 3.54883,2.98848 14.10191,7.65799 15.31599,6.07036 23.44093,12.60767 8.12494,6.53731 8.12494,18.77142 0,13.35478 -9.15223,21.19956 -9.15224,7.84477 -24.18805,7.84477 -17.18378,0 -26.24263,-9.80597 -9.05884,-9.80596 -9.05884,-22.32024 h 16.53005 q 0.46696,10.73987 6.44392,14.38208 5.97697,3.54883 12.3275,3.54883 16.81023,0 16.81023,-13.54157 z"
       id="text1"
       style="font-size:191.263px;font-family:'Roboto Condensed';-inkscape-font-specification:'Roboto Condensed, Normal';white-space:pre;fill:#4c5263;stroke-width:8"
       transform="matrix(0.51767435,0,0,0.45064114,-135.80145,884.27178)"
       aria-label="Solus" />
    <g
       id="g4802"
       transform="translate(872.78571,1728.8657)">
      <circle
         style="fill:#4c5263;fill-opacity:1;stroke:none;stroke-width:3;stroke-miterlimit:4;stroke-dasharray:none;stroke-opacity:1"
         id="circle4804"
         cx="-804.78571"
         cy="-744.56592"
         r="63.999992" />
      <path
         style="color:#000000;font-style:normal;font-variant:normal;font-weight:normal;font-stretch:normal;font-size:medium;line-height:normal;font-family:sans-serif;text-indent:0;text-align:start;text-decoration:none;text-decoration-line:none;text-decoration-style:solid;text-decoration-color:#000000;letter-spacing:normal;word-spacing:normal;text-transform:none;writing-mode:lr-tb;direction:ltr;baseline-shift:baseline;text-anchor:start;white-space:normal;clip-rule:nonzero;display:inline;overflow:visible;visibility:visible;opacity:1;isolation:auto;mix-blend-mode:normal;color-interpolation:sRGB;color-interpolation-filters:linearRGB;solid-color:#000000;solid-opacity:1;fill:#4c5263;fill-opacity:1;fill-rule:evenodd;stroke:none;stroke-width:4.31807;stroke-linecap:butt;stroke-linejoin:miter;stroke-miterlimit:4;stroke-dasharray:none;stroke-dashoffset:0;stroke-opacity:1;color-rendering:auto;image-rendering:auto;shape-rendering:auto;text-rendering:auto;enable-background:accumulate"
         d="m -827.78894,-812.50349 c -9.63078,31.4588 -23.86409,61.33441 -39.99677,89.93756 l -1,2 1.54157,0.79445 c 1.35333,0.62831 3.13495,1.05082 5.54687,1.5332 2.41193,0.48238 5.37886,0.96316 8.71289,1.43945 6.66808,0.95258 14.7982,1.88366 22.68555,2.70313 15.77471,1.63893 30.58203,2.83398 30.58203,2.83398 l 2.51953,0.20313 -0.19335,-2.52149 c 0,0 -3.90695,-50.82991 -4.63672,-59.18164 l -0.0391,-0.45117 -0.21875,-0.39844 c -4.62375,-7.38388 -22.58726,-38.0225 -25.50375,-38.89216 z m 2.00323,8.93756 c 6.82802,12.01186 12.72677,18.82237 20,32 0.72571,8.39811 3.58298,51.7588 3.89118,55.76515 -2.15756,-0.17632 -13.54785,-1.09258 -27.95899,-2.58984 -7.85641,-0.81626 -15.94849,-1.74293 -22.51953,-2.68165 -3.28551,-0.46935 -6.19216,-0.94351 -8.47656,-1.40039 -1.12711,-0.22542 -1.15187,-0.88079 -1.9361,-1.09327 11.78263,-20.81853 30.49883,-53.46772 37,-80 z"
         id="path4806" />
      <path
         style="color:#000000;font-style:normal;font-variant:normal;font-weight:normal;font-stretch:normal;font-size:medium;line-height:normal;font-family:sans-serif;text-indent:0;text-align:start;text-decoration:none;text-decoration-line:none;text-decoration-style:solid;text-decoration-color:#000000;letter-spacing:normal;word-spacing:normal;text-transform:none;writing-mode:lr-tb;direction:ltr;baseline-shift:baseline;text-anchor:start;white-space:normal;clip-rule:nonzero;display:inline;overflow:visible;visibility:visible;opacity:1;isolation:auto;mix-blend-mode:normal;color-interpolation:sRGB;color-interpolation-filters:linearRGB;solid-color:#000000;solid-opacity:1;fill:#ffffff;fill-opacity:1;fill-rule:evenodd;stroke:none;stroke-width:4.31807;stroke-linecap:butt;stroke-linejoin:miter;stroke-miterlimit:4;stroke-dasharray:none;stroke-dashoffset:0;stroke-opacity:1;color-rendering:auto;image-rendering:auto;shape-rendering:auto;text-rendering:auto;enable-background:accumulate"
         d="m -742.14317,-731.41513 c -9.34571,12.60787 -26.60918,19.34605 -47.17544,22.33421 -21.45726,3.11762 -46.33823,2.1913 -68.53889,0.29492 1.06332,1.58839 2.23042,3.12835 3.43158,4.61524 21.3716,1.69438 44.91786,2.38689 65.7284,-0.63672 17.35633,-2.52178 33.03962,-7.63814 43.79912,-17.14649 1.17402,-3.05709 2.13941,-6.44331 2.75523,-9.46116 z"
         id="path4808" />
      <path
         style="color:#000000;font-style:normal;font-variant:normal;font-weight:normal;font-stretch:normal;font-size:medium;line-height:normal;font-family:sans-serif;text-indent:0;text-align:start;text-decoration:none;text-decoration-line:none;text-decoration-style:solid;text-decoration-color:#000000;letter-spacing:normal;word-spacing:normal;text-transform:none;writing-mode:lr-tb;direction:ltr;baseline-shift:baseline;text-anchor:start;white-space:normal;clip-rule:nonzero;display:inline;overflow:visible;visibility:visible;opacity:1;isolation:auto;mix-blend-mode:normal;color-interpolation:sRGB;color-interpolation-filters:linearRGB;solid-color:#000000;solid-opacity:1;fill:#4c5263;fill-opacity:1;fill-rule:evenodd;stroke:none;stroke-width:4.31807;stroke-linecap:butt;stroke-linejoin:miter;stroke-miterlimit:4;stroke-dasharray:none;stroke-dashoffset:0;stroke-opacity:1;color-rendering:auto;image-rendering:auto;shape-rendering:auto;text-rendering:auto;enable-background:accumulate"
         d="m -793.78571,-765.56593 -1.02874,4.49952 c 10.04859,6.72143 19.62481,12.58987 25.84375,18.83008 6.21893,6.24022 9.13316,12.3812 6.76953,20.98047 l -1.10156,4.01367 3.91601,-1.41015 c 12.23548,-4.4024 18.0492,-12.93321 21.60101,-19.91359 l 1,-2 -2,-2 c -5.96313,-6.27973 -15.17389,-10.44201 -25.86077,-14.23095 -10.68689,-3.78893 -22.32622,-7.12618 -29.13923,-8.76905 z m 11.9361,7.9507 c 4.9734,1.36682 10.39142,2.98537 15.75977,4.88867 9.74062,3.45345 18.96263,7.89396 24.17382,12.69336 -2.97972,5.49491 -7.52402,11.83259 -15.36328,15.77148 0.8405,-8.22187 -2.78232,-15.15097 -8.63281,-21.02148 -4.31849,-4.33327 -9.95794,-8.32505 -15.9375,-12.33203 z"
         id="path4810" />
      <circle
         r="64.075058"
         cy="-744.64099"
         cx="-804.71063"
         id="circle4812"
         style="fill:#500000;fill-opacity:0;stroke:none;stroke-width:3;stroke-miterlimit:4;stroke-dasharray:none;stroke-opacity:1" />
      <path
         style="fill:#5294e2;fill-opacity:1;stroke:none;stroke-width:3;stroke-miterlimit:4;stroke-dasharray:none;stroke-opacity:1"
         d="m -788.70147,-704.80948 c -21.74774,3.06876 -43.90018,2.30793 -65.72445,0.63872 14.04431,17.91048 38.45322,26.93623 60.99997,22.586 21.76014,-3.74023 40.83336,-19.67568 48.51661,-40.35033 -12.92189,9.16602 -28.18857,14.72923 -43.79213,17.12561 z"
         id="path4814" />
      <path
         id="path4816"
         d="m -800.78571,-769.56593 c 9.63852,19.85542 9.64724,39.49909 4,54 7.95178,0.0481 20.92769,0.93977 35,-6 -11.56629,-26.40963 -39.00001,-48 -39,-48 z"
         style="fill:#ffffff;fill-opacity:1;fill-rule:evenodd;stroke:none;stroke-width:1px;stroke-linecap:butt;stroke-linejoin:miter;stroke-opacity:1" />
      <path
         style="fill:#ffffff;fill-opacity:1;fill-rule:evenodd;stroke:none;stroke-width:4.31807;stroke-linecap:butt;stroke-linejoin:miter;stroke-miterlimit:4;stroke-dasharray:none;stroke-opacity:1"
         d="m -825.78571,-803.56593 c -6.50145,26.53211 -25.21755,59.18176 -37,80 l 10.41462,2.49562 c 6.57103,0.93871 14.66311,1.86538 22.51953,2.68164 14.41013,1.49715 25.90684,2.6463 28.06585,2.82274 -0.3084,-4.00889 -3.27414,-47.59986 -4,-56 -7.27323,-13.17763 -13.17198,-19.98814 -20,-32 z"
         id="path4819" />
      <path
         style="fill:#ffffff;fill-opacity:1;fill-rule:evenodd;stroke:none;stroke-width:4.31807;stroke-linecap:butt;stroke-linejoin:miter;stroke-miterlimit:4;stroke-dasharray:none;stroke-opacity:1"
         d="m -781.78571,-757.56593 c 5.9813,4.00802 11.68042,7.66564 16,12 5.85007,5.8701 8.8398,13.77887 8,22 7.83834,-3.93845 13.02025,-10.50552 16,-16 -5.21142,-4.79902 -14.26004,-9.54678 -24,-13 -5.37059,-1.90409 -11.02494,-3.63283 -16,-5 z"
         id="path4821" />
    </g>
  </g>
</svg>
