<?xml version="1.0" encoding="UTF-8" standalone="no"?>
<!-- Created with Inkscape (http://www.inkscape.org/) -->

<svg
   width="353.23184mm"
   height="131.31178mm"
   viewBox="0 0 353.23184 131.31178"
   version="1.1"
   id="svg1"
   inkscape:version="1.4.3 (0d15f75042, 2025-12-25)"
   sodipodi:docname="Solus_With_Text.svg"
   xmlns:inkscape="http://www.inkscape.org/namespaces/inkscape"
   xmlns:sodipodi="http://sodipodi.sourceforge.net/DTD/sodipodi-0.dtd"
   xmlns="http://www.w3.org/2000/svg"
   xmlns:svg="http://www.w3.org/2000/svg">
  <sodipodi:namedview
     id="namedview1"
     pagecolor="#ffffff"
     bordercolor="#000000"
     borderopacity="0.25"
     inkscape:showpageshadow="2"
     inkscape:pageopacity="0.0"
     inkscape:pagecheckerboard="0"
     inkscape:deskcolor="#d1d1d1"
     inkscape:document-units="mm"
     inkscape:zoom="0.82492985"
     inkscape:cx="714.60621"
     inkscape:cy="408.51958"
     inkscape:window-width="1920"
     inkscape:window-height="1172"
     inkscape:window-x="0"
     inkscape:window-y="0"
     inkscape:window-maximized="1"
     inkscape:current-layer="layer1" />
  <defs
     id="defs1" />
  <g
     inkscape:label="Layer 1"
     inkscape:groupmode="layer"
     id="layer1"
     transform="translate(84.1375,-40.481236)">
    <g
       id="g1"
       transform="matrix(0.99478634,0,0,0.99478637,-88.116645,-871.1034)">
      <path
         d="m 187.17391,1000.1183 q 0,-2.67009 -0.89003,-4.71716 -0.89003,-2.09157 -2.9371,-3.73812 -2.00256,-1.69106 -5.42918,-3.11511 -3.38211,-1.46854 -8.45528,-2.89259 -4.85066,-1.37955 -8.76679,-3.0261 -3.91613,-1.64656 -6.71973,-3.78263 -2.75909,-2.13607 -4.22763,-4.98416 -1.46856,-2.8926 -1.46856,-6.71972 0,-3.73813 1.60206,-6.80873 1.60205,-3.0706 4.49465,-5.29567 2.93709,-2.22508 6.89773,-3.42662 4.00514,-1.20154 8.76679,-1.20154 6.80872,0 11.79289,2.58109 4.98417,2.58108 7.69876,6.98673 2.71459,4.36114 2.71459,9.79032 h -5.47368 q 0,-4.22764 -2.00257,-7.52075 -1.95807,-3.33761 -5.69619,-5.20667 -3.69362,-1.91356 -9.0338,-1.91356 -5.34018,0 -8.9893,1.64655 -3.60461,1.60206 -5.42918,4.31664 -1.82456,2.67009 -1.82456,5.9632 0,2.31408 0.89003,4.27214 0.89003,1.91357 2.8926,3.60462 2.00257,1.64656 5.34018,3.0706 3.3821,1.42405 8.27726,2.7591 5.16218,1.37954 9.12281,3.1151 4.00513,1.73556 6.76422,4.00513 2.7591,2.26958 4.18315,5.25118 1.42405,2.98159 1.42405,6.89773 0,3.9606 -1.64656,7.1202 -1.64656,3.1151 -4.67266,5.3402 -2.9816,2.1805 -7.07573,3.3376 -4.04963,1.157 -8.9003,1.157 -4.31665,0 -8.58879,-1.1125 -4.27214,-1.1126 -7.83226,-3.4711 -3.51561,-2.3586 -5.65168,-6.0077 -2.09157,-3.6936 -2.09157,-8.85579 h 5.47368 q 0,4.09419 1.64655,6.94219 1.64656,2.8036 4.36115,4.5392 2.75909,1.691 6.0522,2.492 3.33761,0.7566 6.63072,0.7566 5.11767,0 8.85579,-1.5131 3.78263,-1.513 5.82969,-4.2276 2.09158,-2.7591 2.09158,-6.4082 z m 13.17243,-7.38725 v -1.42404 q 0,-5.25118 1.51306,-9.70133 1.55755,-4.45014 4.36114,-7.69875 2.80359,-3.24861 6.76423,-5.02867 3.96063,-1.82456 8.81129,-1.82456 4.89516,0 8.85579,1.82456 4.00513,1.78006 6.80873,5.02867 2.84809,3.24861 4.36114,7.69875 1.51305,4.45015 1.51305,9.70133 v 1.42404 q 0,5.25118 -1.51305,9.70135 -1.51305,4.4056 -4.36114,7.6987 -2.8036,3.2486 -6.76422,5.0732 -3.91613,1.78 -8.81129,1.78 -4.89517,0 -8.8558,-1.78 -3.96063,-1.8246 -6.80873,-5.0732 -2.80359,-3.2931 -4.36114,-7.6987 -1.51306,-4.45017 -1.51306,-9.70135 z m 5.34018,-1.42404 v 1.42404 q 0,3.96063 1.02354,7.52075 1.06804,3.5156 3.1151,6.2747 2.09157,2.7146 5.11767,4.3166 3.02611,1.5576 6.94224,1.5576 3.91613,0 6.89772,-1.5576 3.0261,-1.602 5.07316,-4.3166 2.04708,-2.7591 3.07061,-6.2747 1.06803,-3.56012 1.06803,-7.52075 v -1.42404 q 0,-3.91613 -1.06803,-7.43175 -1.02353,-3.51562 -3.1151,-6.27471 -2.04707,-2.75909 -5.07317,-4.36114 -3.0261,-1.60206 -6.94223,-1.60206 -3.87163,0 -6.89773,1.60206 -2.9816,1.60205 -5.07317,4.36114 -2.04706,2.75909 -3.1151,6.27471 -1.02354,3.51562 -1.02354,7.43175 z m 54.64781,-43.56695 v 68.35424 h -5.34018 v -68.35424 z m 45.34701,57.22884 v -37.02517 h 5.38468 v 48.15057 h -5.16217 z m 0.97903,-8.94474 2.7591,-0.089 q 0,4.53914 -1.06804,8.41074 -1.06803,3.8271 -3.33761,6.6752 -2.26958,2.8036 -5.8742,4.4057 -3.60461,1.5575 -8.67779,1.5575 -3.51562,0 -6.45271,-1.0235 -2.8926,-1.0236 -4.98416,-3.1596 -2.09158,-2.1806 -3.24862,-5.6517 -1.11253,-3.4711 -1.11253,-8.41075 v -30.79502 h 5.29568 v 30.88402 q 0,3.82715 0.84553,6.45265 0.89002,2.5811 2.40307,4.1387 1.55755,1.513 3.56012,2.1805 2.00257,0.6676 4.31664,0.6676 5.8742,0 9.25631,-2.2251 3.42661,-2.2696 4.85066,-5.9632 1.46855,-3.7381 1.46855,-8.05474 z m 47.08256,7.78774 q 0,-2.0025 -0.97903,-3.87161 -0.97903,-1.91356 -3.78262,-3.51562 -2.75909,-1.60205 -8.09927,-2.71459 -4.04963,-0.89003 -7.20924,-2.00256 -3.1151,-1.11254 -5.25117,-2.67009 -2.13607,-1.55755 -3.24861,-3.73812 -1.11254,-2.18058 -1.11254,-5.16217 0,-2.67009 1.15704,-5.02867 1.20154,-2.40308 3.38212,-4.18314 2.22506,-1.82456 5.34017,-2.84809 3.1596,-1.02354 7.07573,-1.02354 5.6072,0 9.56782,1.91357 3.96063,1.86906 6.0967,5.11767 2.13607,3.2486 2.13607,7.34274 h -5.34017 q 0,-2.49208 -1.46855,-4.71716 -1.42405,-2.22507 -4.22764,-3.64912 -2.75909,-1.42405 -6.76423,-1.42405 -4.13864,0 -6.71971,1.24605 -2.53659,1.24604 -3.73813,3.1596 -1.15704,1.91356 -1.15704,3.96063 0,1.60205 0.48952,2.9371 0.48952,1.29054 1.86906,2.40308 1.37955,1.11253 3.91613,2.09157 2.53659,0.97903 6.54171,1.86906 5.8297,1.33504 9.52333,3.2041 3.73811,1.82457 5.51817,4.49465 1.82456,2.67009 1.82456,6.49721 0,2.9816 -1.24604,5.4736 -1.24604,2.4476 -3.60461,4.2722 -2.31408,1.78 -5.6072,2.7591 -3.2486,0.979 -7.29823,0.979 -6.0967,0 -10.32435,-2.0471 -4.22764,-2.047 -6.40821,-5.3401 -2.13607,-3.2931 -2.13607,-7.0757 h 5.34018 q 0.22251,3.7826 2.31407,5.9631 2.13607,2.1361 5.16218,3.0261 3.02609,0.8901 6.0522,0.8901 4.04963,0 6.80872,-1.2016 2.7591,-1.2015 4.18314,-3.1596 1.42404,-2.0025 1.42404,-4.2276 z"
         id="text1"
         style="font-weight:300;font-size:91.0208px;font-family:Roboto;-inkscape-font-specification:'Roboto Light';fill:#4c5263;stroke-width:2.12776"
         aria-label="Solus" />
      <g
         id="g4802"
         transform="translate(872.78571,1728.8657)">
        <circle
           style="fill:#4c5263;fill-opacity:1;stroke:none;stroke-width:3;stroke-miterlimit:4;stroke-dasharray:none;stroke-opacity:1"
           id="circle4804"
           cx="-804.78571"
           cy="-744.56592"
           r="63.999992" />
        <path
           style="color:#000000;font-style:normal;font-variant:normal;font-weight:normal;font-stretch:normal;font-size:medium;line-height:normal;font-family:sans-serif;text-indent:0;text-align:start;text-decoration:none;text-decoration-line:none;text-decoration-style:solid;text-decoration-color:#000000;letter-spacing:normal;word-spacing:normal;text-transform:none;writing-mode:lr-tb;direction:ltr;baseline-shift:baseline;text-anchor:start;white-space:normal;clip-rule:nonzero;display:inline;overflow:visible;visibility:visible;opacity:1;isolation:auto;mix-blend-mode:normal;color-interpolation:sRGB;color-interpolation-filters:linearRGB;solid-color:#000000;solid-opacity:1;fill:#4c5263;fill-opacity:1;fill-rule:evenodd;stroke:none;stroke-width:4.31807;stroke-linecap:butt;stroke-linejoin:miter;stroke-miterlimit:4;stroke-dasharray:none;stroke-dashoffset:0;stroke-opacity:1;color-rendering:auto;image-rendering:auto;shape-rendering:auto;text-rendering:auto;enable-background:accumulate"
           d="m -827.78894,-812.50349 c -9.63078,31.4588 -23.86409,61.33441 -39.99677,89.93756 l -1,2 1.54157,0.79445 c 1.35333,0.62831 3.13495,1.05082 5.54687,1.5332 2.41193,0.48238 5.37886,0.96316 8.71289,1.43945 6.66808,0.95258 14.7982,1.88366 22.68555,2.70313 15.77471,1.63893 30.58203,2.83398 30.58203,2.83398 l 2.51953,0.20313 -0.19335,-2.52149 c 0,0 -3.90695,-50.82991 -4.63672,-59.18164 l -0.0391,-0.45117 -0.21875,-0.39844 c -4.62375,-7.38388 -22.58726,-38.0225 -25.50375,-38.89216 z m 2.00323,8.93756 c 6.82802,12.01186 12.72677,18.82237 20,32 0.72571,8.39811 3.58298,51.7588 3.89118,55.76515 -2.15756,-0.17632 -13.54785,-1.09258 -27.95899,-2.58984 -7.85641,-0.81626 -15.94849,-1.74293 -22.51953,-2.68165 -3.28551,-0.46935 -6.19216,-0.94351 -8.47656,-1.40039 -1.12711,-0.22542 -1.15187,-0.88079 -1.9361,-1.09327 11.78263,-20.81853 30.49883,-53.46772 37,-80 z"
           id="path4806" />
        <path
           style="color:#000000;font-style:normal;font-variant:normal;font-weight:normal;font-stretch:normal;font-size:medium;line-height:normal;font-family:sans-serif;text-indent:0;text-align:start;text-decoration:none;text-decoration-line:none;text-decoration-style:solid;text-decoration-color:#000000;letter-spacing:normal;word-spacing:normal;text-transform:none;writing-mode:lr-tb;direction:ltr;baseline-shift:baseline;text-anchor:start;white-space:normal;clip-rule:nonzero;display:inline;overflow:visible;visibility:visible;opacity:1;isolation:auto;mix-blend-mode:normal;color-interpolation:sRGB;color-interpolation-filters:linearRGB;solid-color:#000000;solid-opacity:1;fill:#ffffff;fill-opacity:1;fill-rule:evenodd;stroke:none;stroke-width:4.31807;stroke-linecap:butt;stroke-linejoin:miter;stroke-miterlimit:4;stroke-dasharray:none;stroke-dashoffset:0;stroke-opacity:1;color-rendering:auto;image-rendering:auto;shape-rendering:auto;text-rendering:auto;enable-background:accumulate"
           d="m -742.14317,-731.41513 c -9.34571,12.60787 -26.60918,19.34605 -47.17544,22.33421 -21.45726,3.11762 -46.33823,2.1913 -68.53889,0.29492 1.06332,1.58839 2.23042,3.12835 3.43158,4.61524 21.3716,1.69438 44.91786,2.38689 65.7284,-0.63672 17.35633,-2.52178 33.03962,-7.63814 43.79912,-17.14649 1.17402,-3.05709 2.13941,-6.44331 2.75523,-9.46116 z"
           id="path4808" />
        <path
           style="color:#000000;font-style:normal;font-variant:normal;font-weight:normal;font-stretch:normal;font-size:medium;line-height:normal;font-family:sans-serif;text-indent:0;text-align:start;text-decoration:none;text-decoration-line:none;text-decoration-style:solid;text-decoration-color:#000000;letter-spacing:normal;word-spacing:normal;text-transform:none;writing-mode:lr-tb;direction:ltr;baseline-shift:baseline;text-anchor:start;white-space:normal;clip-rule:nonzero;display:inline;overflow:visible;visibility:visible;opacity:1;isolation:auto;mix-blend-mode:normal;color-interpolation:sRGB;color-interpolation-filters:linearRGB;solid-color:#000000;solid-opacity:1;fill:#4c5263;fill-opacity:1;fill-rule:evenodd;stroke:none;stroke-width:4.31807;stroke-linecap:butt;stroke-linejoin:miter;stroke-miterlimit:4;stroke-dasharray:none;stroke-dashoffset:0;stroke-opacity:1;color-rendering:auto;image-rendering:auto;shape-rendering:auto;text-rendering:auto;enable-background:accumulate"
           d="m -793.78571,-765.56593 -1.02874,4.49952 c 10.04859,6.72143 19.62481,12.58987 25.84375,18.83008 6.21893,6.24022 9.13316,12.3812 6.76953,20.98047 l -1.10156,4.01367 3.91601,-1.41015 c 12.23548,-4.4024 18.0492,-12.93321 21.60101,-19.91359 l 1,-2 -2,-2 c -5.96313,-6.27973 -15.17389,-10.44201 -25.86077,-14.23095 -10.68689,-3.78893 -22.32622,-7.12618 -29.13923,-8.76905 z m 11.9361,7.9507 c 4.9734,1.36682 10.39142,2.98537 15.75977,4.88867 9.74062,3.45345 18.96263,7.89396 24.17382,12.69336 -2.97972,5.49491 -7.52402,11.83259 -15.36328,15.77148 0.8405,-8.22187 -2.78232,-15.15097 -8.63281,-21.02148 -4.31849,-4.33327 -9.95794,-8.32505 -15.9375,-12.33203 z"
           id="path4810" />
        <circle
           r="64.075058"
           cy="-744.64099"
           cx="-804.71063"
           id="circle4812"
           style="fill:#500000;fill-opacity:0;stroke:none;stroke-width:3;stroke-miterlimit:4;stroke-dasharray:none;stroke-opacity:1" />
        <path
           style="fill:#5294e2;fill-opacity:1;stroke:none;stroke-width:3;stroke-miterlimit:4;stroke-dasharray:none;stroke-opacity:1"
           d="m -788.70147,-704.80948 c -21.74774,3.06876 -43.90018,2.30793 -65.72445,0.63872 14.04431,17.91048 38.45322,26.93623 60.99997,22.586 21.76014,-3.74023 40.83336,-19.67568 48.51661,-40.35033 -12.92189,9.16602 -28.18857,14.72923 -43.79213,17.12561 z"
           id="path4814" />
        <path
           id="path4816"
           d="m -800.78571,-769.56593 c 9.63852,19.85542 9.64724,39.49909 4,54 7.95178,0.0481 20.92769,0.93977 35,-6 -11.56629,-26.40963 -39.00001,-48 -39,-48 z"
           style="fill:#ffffff;fill-opacity:1;fill-rule:evenodd;stroke:none;stroke-width:1px;stroke-linecap:butt;stroke-linejoin:miter;stroke-opacity:1" />
        <path
           style="fill:#ffffff;fill-opacity:1;fill-rule:evenodd;stroke:none;stroke-width:4.31807;stroke-linecap:butt;stroke-linejoin:miter;stroke-miterlimit:4;stroke-dasharray:none;stroke-opacity:1"
           d="m -825.78571,-803.56593 c -6.50145,26.53211 -25.21755,59.18176 -37,80 l 10.41462,2.49562 c 6.57103,0.93871 14.66311,1.86538 22.51953,2.68164 14.41013,1.49715 25.90684,2.6463 28.06585,2.82274 -0.3084,-4.00889 -3.27414,-47.59986 -4,-56 -7.27323,-13.17763 -13.17198,-19.98814 -20,-32 z"
           id="path4819" />
        <path
           style="fill:#ffffff;fill-opacity:1;fill-rule:evenodd;stroke:none;stroke-width:4.31807;stroke-linecap:butt;stroke-linejoin:miter;stroke-miterlimit:4;stroke-dasharray:none;stroke-opacity:1"
           d="m -781.78571,-757.56593 c 5.9813,4.00802 11.68042,7.66564 16,12 5.85007,5.8701 8.8398,13.77887 8,22 7.83834,-3.93845 13.02025,-10.50552 16,-16 -5.21142,-4.79902 -14.26004,-9.54678 -24,-13 -5.37059,-1.90409 -11.02494,-3.63283 -16,-5 z"
           id="path4821" />
      </g>
    </g>
  </g>
</svg>
