<?xml version="1.0" encoding="UTF-8" standalone="no"?>
<!-- Created with Inkscape (http://www.inkscape.org/) -->

<svg
   width="1336.6694"
   height="496.9411"
   viewBox="0 0 322.58289 131.99998"
   id="svg6473"
   version="1.1"
   xmlns="http://www.w3.org/2000/svg"
   xmlns:svg="http://www.w3.org/2000/svg"
   xmlns:rdf="http://www.w3.org/1999/02/22-rdf-syntax-ns#"
   xmlns:cc="http://creativecommons.org/ns#"
   xmlns:dc="http://purl.org/dc/elements/1.1/">
  <defs
     id="defs6475" />
  <metadata
     id="metadata6478">
    <rdf:RDF>
      <cc:Work
         rdf:about="">
        <dc:format>image/svg+xml</dc:format>
        <dc:type
           rdf:resource="http://purl.org/dc/dcmitype/StillImage" />
        <dc:title />
      </cc:Work>
    </rdf:RDF>
  </metadata>
  <g
     id="layer1"
     transform="translate(-22.218749,-916.36221)">
    <path
       style="font-weight:300;font-size:90px;line-height:1.25;font-family:Roboto;-inkscape-font-specification:'Roboto Light';letter-spacing:0px;word-spacing:0px;fill:#4c5263;stroke-width:1px"
       d="m 188.77281,995.85589 q 0,5.76001 -2.88,9.72001 -2.88,3.96 -7.92,5.94 -5.04,1.98 -11.43,1.98 -5.85,0 -10.17,-0.81 -4.32,-0.81 -7.38,-2.07 v -5.13 q 3.33,1.35 7.92,2.34 4.59,0.99 9.9,0.99 7.38,0 11.97,-3.15 4.68,-3.15 4.68,-9.45001 0,-3.78 -1.8,-6.21 -1.71,-2.52 -5.4,-4.32 -3.6,-1.89 -9.27,-3.78 -5.4,-1.8 -9.27,-4.05 -3.87,-2.25 -5.94,-5.58 -2.07,-3.42 -2.07,-8.55 0,-5.22 2.61,-8.82 2.7,-3.69 7.29,-5.58 4.68,-1.89 10.62,-1.89 4.68,0 8.91,0.9 4.23,0.9 8.01,2.52 l -1.71,4.5 q -7.74,-3.24 -15.39,-3.24 -6.66,0 -10.89,2.97 -4.14,2.88 -4.14,8.55 0,4.14 1.8,6.66 1.8,2.43 5.22,4.14 3.42,1.71 8.37,3.42 5.67,1.98 9.72,4.14 4.14,2.16 6.39,5.49 2.25,3.24 2.25,8.37 z m 52.46996,-7.29 q 0,7.56 -2.52,13.14001 -2.43,5.58 -7.29,8.73 -4.77,3.06 -11.7,3.06 -6.66,0 -11.43,-3.06 -4.77,-3.06 -7.38,-8.64 -2.52,-5.67001 -2.52,-13.23001 0,-11.61 5.76,-18.18 5.76,-6.57 15.93,-6.57 6.84,0 11.52,3.15 4.77,3.06 7.2,8.64 2.43,5.58 2.43,12.96 z m -37.53,0 q 0,9.27 3.87,14.94001 3.96,5.58 12.24,5.58 8.37,0 12.24,-5.67 3.87,-5.67001 3.87,-14.85001 0,-5.94 -1.62,-10.53 -1.62,-4.59 -5.13,-7.2 -3.51,-2.61 -9.18,-2.61 -8.1,0 -12.24,5.4 -4.05,5.4 -4.05,14.94 z m 55.71002,24.03001 h -5.13 v -68.40001 h 5.13 z m 53.54998,-47.88001 v 47.88001 h -4.14 l -0.81,-8.19 h -0.27 q -1.98,3.96 -6.12,6.57 -4.05,2.52 -10.17,2.52 -16.83,0 -16.83,-17.46001 v -31.32 h 5.13 v 30.87 q 0,6.93001 3.06,10.26001 3.15,3.24 9.27,3.24 15.75,0 15.75,-18.27001 v -26.1 z m 46.08005,35.19 q 0,6.48001 -4.86,10.08001 -4.86,3.51 -13.68,3.51 -5.04,0 -8.91,-0.9 -3.87,-0.81 -6.48,-2.16 v -4.95 q 3.15,1.62 7.2,2.7 4.05,0.99 8.28,0.99 7.02,0 10.17,-2.34 3.24,-2.43 3.24,-6.57 0,-3.96001 -3.33,-6.03001 -3.33,-2.16 -9.81,-4.41 -4.5,-1.53 -7.92,-3.06 -3.33,-1.62 -5.22,-4.05 -1.89,-2.43 -1.89,-6.66 0,-5.76 4.68,-9 4.68,-3.24 12.51,-3.24 4.32,0 8.01,0.81 3.78,0.81 6.93,2.16 l -1.89,4.23 q -2.79,-1.17 -6.3,-1.98 -3.51,-0.9 -7.02,-0.9 -5.67,0 -8.82,1.98 -3.15,1.98 -3.15,5.76 0,2.88 1.53,4.59 1.53,1.62 4.41,2.79 2.88,1.17 7.02,2.61 4.32,1.53 7.74,3.15 3.42,1.62 5.49,4.14 2.07,2.52 2.07,6.75 z"
       id="text4683"
       aria-label="Solus" />
    <g
       id="g4802"
       transform="translate(872.78571,1728.8657)">
      <circle
         style="fill:#4c5263;fill-opacity:1;stroke:none;stroke-width:3;stroke-miterlimit:4;stroke-dasharray:none;stroke-opacity:1"
         id="circle4804"
         cx="-804.78571"
         cy="-744.56592"
         r="63.999992" />
      <path
         style="color:#000000;font-style:normal;font-variant:normal;font-weight:normal;font-stretch:normal;font-size:medium;line-height:normal;font-family:sans-serif;text-indent:0;text-align:start;text-decoration:none;text-decoration-line:none;text-decoration-style:solid;text-decoration-color:#000000;letter-spacing:normal;word-spacing:normal;text-transform:none;writing-mode:lr-tb;direction:ltr;baseline-shift:baseline;text-anchor:start;white-space:normal;clip-rule:nonzero;display:inline;overflow:visible;visibility:visible;opacity:1;isolation:auto;mix-blend-mode:normal;color-interpolation:sRGB;color-interpolation-filters:linearRGB;solid-color:#000000;solid-opacity:1;fill:#4c5263;fill-opacity:1;fill-rule:evenodd;stroke:none;stroke-width:4.31807;stroke-linecap:butt;stroke-linejoin:miter;stroke-miterlimit:4;stroke-dasharray:none;stroke-dashoffset:0;stroke-opacity:1;color-rendering:auto;image-rendering:auto;shape-rendering:auto;text-rendering:auto;enable-background:accumulate"
         d="m -827.78894,-812.50349 c -9.63078,31.4588 -23.86409,61.33441 -39.99677,89.93756 l -1,2 1.54157,0.79445 c 1.35333,0.62831 3.13495,1.05082 5.54687,1.5332 2.41193,0.48238 5.37886,0.96316 8.71289,1.43945 6.66808,0.95258 14.7982,1.88366 22.68555,2.70313 15.77471,1.63893 30.58203,2.83398 30.58203,2.83398 l 2.51953,0.20313 -0.19335,-2.52149 c 0,0 -3.90695,-50.82991 -4.63672,-59.18164 l -0.0391,-0.45117 -0.21875,-0.39844 c -4.62375,-7.38388 -22.58726,-38.0225 -25.50375,-38.89216 z m 2.00323,8.93756 c 6.82802,12.01186 12.72677,18.82237 20,32 0.72571,8.39811 3.58298,51.7588 3.89118,55.76515 -2.15756,-0.17632 -13.54785,-1.09258 -27.95899,-2.58984 -7.85641,-0.81626 -15.94849,-1.74293 -22.51953,-2.68165 -3.28551,-0.46935 -6.19216,-0.94351 -8.47656,-1.40039 -1.12711,-0.22542 -1.15187,-0.88079 -1.9361,-1.09327 11.78263,-20.81853 30.49883,-53.46772 37,-80 z"
         id="path4806" />
      <path
         style="color:#000000;font-style:normal;font-variant:normal;font-weight:normal;font-stretch:normal;font-size:medium;line-height:normal;font-family:sans-serif;text-indent:0;text-align:start;text-decoration:none;text-decoration-line:none;text-decoration-style:solid;text-decoration-color:#000000;letter-spacing:normal;word-spacing:normal;text-transform:none;writing-mode:lr-tb;direction:ltr;baseline-shift:baseline;text-anchor:start;white-space:normal;clip-rule:nonzero;display:inline;overflow:visible;visibility:visible;opacity:1;isolation:auto;mix-blend-mode:normal;color-interpolation:sRGB;color-interpolation-filters:linearRGB;solid-color:#000000;solid-opacity:1;fill:#ffffff;fill-opacity:1;fill-rule:evenodd;stroke:none;stroke-width:4.31807;stroke-linecap:butt;stroke-linejoin:miter;stroke-miterlimit:4;stroke-dasharray:none;stroke-dashoffset:0;stroke-opacity:1;color-rendering:auto;image-rendering:auto;shape-rendering:auto;text-rendering:auto;enable-background:accumulate"
         d="m -742.14317,-731.41513 c -9.34571,12.60787 -26.60918,19.34605 -47.17544,22.33421 -21.45726,3.11762 -46.33823,2.1913 -68.53889,0.29492 1.06332,1.58839 2.23042,3.12835 3.43158,4.61524 21.3716,1.69438 44.91786,2.38689 65.7284,-0.63672 17.35633,-2.52178 33.03962,-7.63814 43.79912,-17.14649 1.17402,-3.05709 2.13941,-6.44331 2.75523,-9.46116 z"
         id="path4808" />
      <path
         style="color:#000000;font-style:normal;font-variant:normal;font-weight:normal;font-stretch:normal;font-size:medium;line-height:normal;font-family:sans-serif;text-indent:0;text-align:start;text-decoration:none;text-decoration-line:none;text-decoration-style:solid;text-decoration-color:#000000;letter-spacing:normal;word-spacing:normal;text-transform:none;writing-mode:lr-tb;direction:ltr;baseline-shift:baseline;text-anchor:start;white-space:normal;clip-rule:nonzero;display:inline;overflow:visible;visibility:visible;opacity:1;isolation:auto;mix-blend-mode:normal;color-interpolation:sRGB;color-interpolation-filters:linearRGB;solid-color:#000000;solid-opacity:1;fill:#4c5263;fill-opacity:1;fill-rule:evenodd;stroke:none;stroke-width:4.31807;stroke-linecap:butt;stroke-linejoin:miter;stroke-miterlimit:4;stroke-dasharray:none;stroke-dashoffset:0;stroke-opacity:1;color-rendering:auto;image-rendering:auto;shape-rendering:auto;text-rendering:auto;enable-background:accumulate"
         d="m -793.78571,-765.56593 -1.02874,4.49952 c 10.04859,6.72143 19.62481,12.58987 25.84375,18.83008 6.21893,6.24022 9.13316,12.3812 6.76953,20.98047 l -1.10156,4.01367 3.91601,-1.41015 c 12.23548,-4.4024 18.0492,-12.93321 21.60101,-19.91359 l 1,-2 -2,-2 c -5.96313,-6.27973 -15.17389,-10.44201 -25.86077,-14.23095 -10.68689,-3.78893 -22.32622,-7.12618 -29.13923,-8.76905 z m 11.9361,7.9507 c 4.9734,1.36682 10.39142,2.98537 15.75977,4.88867 9.74062,3.45345 18.96263,7.89396 24.17382,12.69336 -2.97972,5.49491 -7.52402,11.83259 -15.36328,15.77148 0.8405,-8.22187 -2.78232,-15.15097 -8.63281,-21.02148 -4.31849,-4.33327 -9.95794,-8.32505 -15.9375,-12.33203 z"
         id="path4810" />
      <circle
         r="64.075058"
         cy="-744.64099"
         cx="-804.71063"
         id="circle4812"
         style="fill:#500000;fill-opacity:0;stroke:none;stroke-width:3;stroke-miterlimit:4;stroke-dasharray:none;stroke-opacity:1" />
      <path
         style="fill:#5294e2;fill-opacity:1;stroke:none;stroke-width:3;stroke-miterlimit:4;stroke-dasharray:none;stroke-opacity:1"
         d="m -788.70147,-704.80948 c -21.74774,3.06876 -43.90018,2.30793 -65.72445,0.63872 14.04431,17.91048 38.45322,26.93623 60.99997,22.586 21.76014,-3.74023 40.83336,-19.67568 48.51661,-40.35033 -12.92189,9.16602 -28.18857,14.72923 -43.79213,17.12561 z"
         id="path4814" />
      <path
         id="path4816"
         d="m -800.78571,-769.56593 c 9.63852,19.85542 9.64724,39.49909 4,54 7.95178,0.0481 20.92769,0.93977 35,-6 -11.56629,-26.40963 -39.00001,-48 -39,-48 z"
         style="fill:#ffffff;fill-opacity:1;fill-rule:evenodd;stroke:none;stroke-width:1px;stroke-linecap:butt;stroke-linejoin:miter;stroke-opacity:1" />
      <path
         style="fill:#ffffff;fill-opacity:1;fill-rule:evenodd;stroke:none;stroke-width:4.31807;stroke-linecap:butt;stroke-linejoin:miter;stroke-miterlimit:4;stroke-dasharray:none;stroke-opacity:1"
         d="m -825.78571,-803.56593 c -6.50145,26.53211 -25.21755,59.18176 -37,80 l 10.41462,2.49562 c 6.57103,0.93871 14.66311,1.86538 22.51953,2.68164 14.41013,1.49715 25.90684,2.6463 28.06585,2.82274 -0.3084,-4.00889 -3.27414,-47.59986 -4,-56 -7.27323,-13.17763 -13.17198,-19.98814 -20,-32 z"
         id="path4819" />
      <path
         style="fill:#ffffff;fill-opacity:1;fill-rule:evenodd;stroke:none;stroke-width:4.31807;stroke-linecap:butt;stroke-linejoin:miter;stroke-miterlimit:4;stroke-dasharray:none;stroke-opacity:1"
         d="m -781.78571,-757.56593 c 5.9813,4.00802 11.68042,7.66564 16,12 5.85007,5.8701 8.8398,13.77887 8,22 7.83834,-3.93845 13.02025,-10.50552 16,-16 -5.21142,-4.79902 -14.26004,-9.54678 -24,-13 -5.37059,-1.90409 -11.02494,-3.63283 -16,-5 z"
         id="path4821" />
    </g>
  </g>
</svg>
