<?xml version="1.0" encoding="UTF-8" standalone="no"?>
<!-- Created with Inkscape (http://www.inkscape.org/) -->

<svg
   width="180"
   height="180"
   viewBox="0 0 180 180"
   version="1.1"
   id="svg1"
   xmlns="http://www.w3.org/2000/svg"
   xmlns:svg="http://www.w3.org/2000/svg">
  <defs
     id="defs1" />
  <g
     id="layer1"
     transform="matrix(1.3988079,0,0,1.2423499,-35.892715,-21.811998)">
    <g
       id="path1"
       style="opacity:1"
       transform="translate(0,-9.9956848)">
      <path
         style="baseline-shift:baseline;display:inline;overflow:visible;vector-effect:none;fill:#1e90ff;fill-opacity:0;enable-background:accumulate;stop-color:#000000;stop-opacity:1"
         d="M 90,166.96315 C 38.654792,144.02574 27.031341,94.751069 31.562897,34.76493 c 19.200411,7.801446 38.627702,9.250265 58.437103,0 19.8094,9.250265 39.23669,7.801446 58.4371,0 C 152.96866,94.751069 141.34521,144.02574 90,166.96315 Z"
         id="path7" />
      <path
         style="baseline-shift:baseline;display:inline;overflow:visible;vector-effect:none;fill:#5294e2;fill-opacity:1;enable-background:accumulate;stop-color:#000000;stop-opacity:1"
         d="m 27.09375,27.552734 -0.517578,6.835938 c -2.297714,30.415817 -0.573729,58.439227 8.58789,82.169918 9.16162,23.7307 26.035154,43.01546 52.796875,54.97071 L 90,172.43945 92.039062,171.5293 c 26.761718,-11.95525 43.635258,-31.24001 52.796878,-54.97071 9.16162,-23.730691 10.8856,-51.754101 8.58789,-82.169918 l -0.51758,-6.835938 -6.35156,2.580078 C 128.24396,37.572764 110.60774,38.8697 92.115234,30.234375 L 90,29.246094 87.884766,30.234375 C 69.392256,38.8697 51.756036,37.572764 33.445312,30.132812 Z"
         id="path8" />
      <path
         id="use8"
         style="baseline-shift:baseline;display:inline;overflow:visible;vector-effect:none;fill:#1e90ff;fill-opacity:0;stroke:#4c5164;stroke-width:4;stroke-dasharray:none;stroke-opacity:1;enable-background:accumulate;stop-color:#000000"
         d="m 89.570312,41.519531 c -11.832348,4.980796 -25.003472,6.768188 -37.724404,4.969015 -5.02142,-0.67024 -9.972523,-1.827339 -14.799033,-3.361593 -0.150017,2.97692 -0.258636,5.921649 -0.315644,8.847869 -0.271095,13.093915 0.396148,26.249649 2.747285,39.150178 0.219251,1.128716 0.479353,2.510731 0.746134,3.730047 2.922234,13.814873 8.156019,27.316163 16.580473,38.733493 7.898918,10.73405 18.509836,19.34218 30.368408,25.36017 0.938326,0.47395 1.876355,0.94904 2.828422,1.39504 12.306427,-5.80627 23.508637,-14.21005 31.857797,-25.01469 8.19769,-10.47185 13.59823,-22.91017 16.82189,-35.756794 0.36006,-1.463506 0.76473,-3.150538 1.09212,-4.711744 2.12926,-10.044329 3.13506,-20.299932 3.45476,-30.553881 0.0372,-1.635469 0.0841,-3.487266 0.0926,-5.207797 0.0302,-4.008114 -0.0366,-8.019219 -0.1955,-11.968275 -0.042,-1.335201 -0.1075,-2.669373 -0.17252,-4.003616 -12.16167,3.907441 -25.29562,5.258745 -37.89409,2.803793 -5.163601,-0.976173 -10.21251,-2.54045 -15.045358,-4.600668 -0.147787,0.06315 -0.295573,0.126302 -0.44336,0.189453 z" />
    </g>
    <path
       style="fill:#5294e2;fill-opacity:1;stroke:#ffffff;stroke-width:8.25509;stroke-dasharray:none;stroke-opacity:1"
       d="M 63.550709,98.35279 88.96444,119.62391 127.8216,51.844761"
       id="path10" />
  </g>
</svg>
